<?xml version="1.0" encoding="utf-8"?>
<!-- Generator: Adobe Illustrator 18.1.0, SVG Export Plug-In . SVG Version: 6.00 Build 0)  -->
<svg version="1.1" xmlns="http://www.w3.org/2000/svg" xmlns:xlink="http://www.w3.org/1999/xlink" x="0px" y="0px"
	 viewBox="0 0 1000 1000" enable-background="new 0 0 1000 1000" xml:space="preserve">
<g id="Calque_2">
</g>
<g id="Calque_3">
	<g>
		<g>
			<circle fill="#E2E2E2" cx="533.3" cy="232.5" r="37.6"/>
			<circle fill="#E2E2E2" cx="472.5" cy="93.8" r="43.4"/>
			<circle fill="#E2E2E2" cx="484.1" cy="374.2" r="31.8"/>
			<circle fill="#E2E2E2" cx="530.4" cy="504.3" r="26"/>
			<circle fill="#E2E2E2" cx="487" cy="625.8" r="23.1"/>
			<circle fill="#E2E2E2" cx="521.7" cy="742.4" r="20.2"/>
			<circle fill="#E2E2E2" cx="495.7" cy="850.3" r="14.5"/>
			<circle fill="#E2E2E2" cx="515.9" cy="938" r="11.6"/>
		</g>
		<line fill="none" stroke="#E2E2E2" stroke-width="0.5" stroke-miterlimit="10" x1="472.5" y1="93.8" x2="484.1" y2="374.2"/>
		<line fill="none" stroke="#E2E2E2" stroke-width="0.5" stroke-miterlimit="10" x1="484.1" y1="374.2" x2="487" y2="625.8"/>
		<line fill="none" stroke="#E2E2E2" stroke-width="0.5" stroke-miterlimit="10" x1="487" y1="625.8" x2="495.7" y2="850.3"/>
		<line fill="none" stroke="#E2E2E2" stroke-width="0.5" stroke-miterlimit="10" x1="495.7" y1="850.3" x2="515.9" y2="938"/>
		<line fill="none" stroke="#E2E2E2" stroke-width="0.5" stroke-miterlimit="10" x1="515.9" y1="938" x2="521.7" y2="742.4"/>
		<line fill="none" stroke="#E2E2E2" stroke-width="0.5" stroke-miterlimit="10" x1="521.7" y1="742.4" x2="530.4" y2="504.3"/>
		<line fill="none" stroke="#E2E2E2" stroke-width="0.5" stroke-miterlimit="10" x1="533.3" y1="232.5" x2="530.4" y2="504.3"/>
		<line fill="none" stroke="#E2E2E2" stroke-width="0.5" stroke-miterlimit="10" x1="533.3" y1="232.5" x2="472.5" y2="93.8"/>
		<line fill="none" stroke="#E2E2E2" stroke-width="0.5" stroke-miterlimit="10" x1="495.7" y1="850.3" x2="521.7" y2="742.4"/>
		<line fill="none" stroke="#E2E2E2" stroke-width="0.5" stroke-miterlimit="10" x1="487" y1="625.8" x2="530.4" y2="504.3"/>
		<line fill="none" stroke="#E2E2E2" stroke-width="0.5" stroke-miterlimit="10" x1="533.3" y1="232.5" x2="484.1" y2="374.2"/>
		<line fill="none" stroke="#E2E2E2" stroke-width="0.5" stroke-miterlimit="10" x1="487" y1="625.8" x2="521.7" y2="742.4"/>
		<line fill="none" stroke="#E2E2E2" stroke-width="0.5" stroke-miterlimit="10" x1="530.4" y1="504.3" x2="484.1" y2="374.2"/>
	</g>
</g>
</svg>
